<svg aria-hidden="true" focusable="false" data-prefix="fad" data-icon="trash" role="img" xmlns="http://www.w3.org/2000/svg" viewBox="0 0 448 512">
  <style>
  .secondary {
    fill: rgb(173, 181, 189);
    opacity: 0.4;
  }
  .primary {
    fill: rgb(173, 181, 189);
    opacity: 1;
  }
  </style>
  <g>
    <path fill="currentColor" d="M53.2 467L32 96h384l-21.2 371a48 48 0 0 1-47.9 45H101.1a48 48 0 0 1-47.9-45z" class="secondary"></path>
    <path fill="currentColor" d="M0 80V48a16 16 0 0 1 16-16h120l9.4-18.7A23.72 23.72 0 0 1 166.8 0h114.3a24 24 0 0 1 21.5 13.3L312 32h120a16 16 0 0 1 16 16v32a16 16 0 0 1-16 16H16A16 16 0 0 1 0 80z" class="primary"></path>
  </g>
</svg>